<?xml version="1.0" standalone="no"?>
<!DOCTYPE svg PUBLIC "-//W3C//DTD SVG 20010904//EN"
 "http://www.w3.org/TR/2001/REC-SVG-20010904/DTD/svg10.dtd">
<svg version="1.0" xmlns="http://www.w3.org/2000/svg"
 width="1112.000000pt" height="1123.000000pt" viewBox="0 0 1112.000000 1123.000000"
 preserveAspectRatio="xMidYMid meet">

<g transform="translate(0.000000,1123.000000) scale(0.100000,-0.100000)"
fill="#000000" stroke="none">
<path d="M5190 11117 l0 -104 -127 -6 c-348 -18 -960 -156 -1373 -312 -374
-141 -882 -416 -1220 -660 -498 -360 -980 -868 -1333 -1405 -337 -513 -565
-1043 -726 -1688 -94 -375 -151 -758 -151 -1014 l0 -98 -130 0 -130 0 0 -336
c0 -212 4 -342 10 -355 10 -18 25 -19 370 -19 l360 0 0 355 0 355 -106 0 -105
0 5 53 c3 28 8 88 11 132 24 323 180 1001 312 1350 262 693 699 1374 1202
1875 186 185 307 290 496 431 558 417 1022 657 1606 829 343 101 798 190 975
190 l54 0 0 -90 0 -90 360 0 360 0 0 92 0 91 108 -7 c281 -17 745 -116 1072
-228 709 -244 1253 -566 1800 -1066 399 -366 731 -785 1025 -1297 153 -267
359 -761 455 -1095 105 -365 182 -771 196 -1044 l7 -126 -91 0 -92 0 0 -355 0
-355 365 0 365 0 0 355 0 355 -169 0 -169 0 -6 63 c-55 664 -139 1076 -331
1622 -284 808 -785 1558 -1435 2149 -664 605 -1463 1025 -2317 1221 -214 49
-460 91 -667 114 -48 6 -94 16 -102 22 -10 8 -14 37 -14 105 l0 94 -360 0
-360 0 0 -103z"/>
<path d="M4340 9687 c0 -1 11 -38 26 -82 37 -117 42 -220 15 -325 -29 -116
-78 -214 -138 -280 l-51 -55 -84 80 c-183 175 -638 588 -642 583 -2 -1 -11
-39 -21 -83 -36 -170 -130 -376 -358 -792 -152 -277 -205 -383 -260 -523 -89
-226 -112 -348 -112 -580 1 -148 4 -188 23 -260 26 -98 74 -203 126 -274 19
-28 34 -52 31 -54 -2 -2 -34 -10 -72 -17 -82 -16 -297 -92 -408 -145 -341
-163 -664 -446 -875 -766 -168 -255 -309 -607 -327 -818 l-6 -68 86 60 c61 42
113 68 174 88 80 26 101 29 223 29 121 -1 143 -4 215 -29 66 -23 175 -80 175
-91 0 -2 -38 -15 -85 -30 -352 -112 -667 -434 -800 -815 -211 -609 -142 -1307
197 -1983 128 -256 261 -461 466 -714 155 -192 213 -252 532 -549 270 -252
372 -338 655 -551 221 -166 821 -583 838 -583 3 0 -37 82 -87 182 -187 371
-256 677 -243 1082 6 197 25 346 63 501 158 642 614 1192 1230 1487 112 53
126 62 104 69 -14 4 -36 7 -49 8 -46 2 -174 72 -226 125 -72 72 -139 210 -167
341 -26 129 -28 346 -3 490 31 183 124 416 226 567 l39 57 -52 16 c-79 23
-299 37 -409 25 -262 -27 -557 -159 -750 -336 -35 -32 -74 -68 -87 -79 l-23
-19 6 29 c12 51 93 209 153 298 210 315 413 492 740 650 68 32 121 61 119 64
-3 2 -38 0 -79 -6 -40 -6 -203 -25 -363 -41 -159 -16 -323 -35 -363 -41 -41
-6 -76 -8 -80 -5 -3 4 55 65 129 138 122 120 143 135 234 180 103 50 262 101
369 118 34 5 121 14 194 20 388 29 524 100 568 297 15 67 15 92 4 232 -32 392
57 691 268 908 149 152 378 253 575 253 l50 0 -48 -52 c-27 -29 -115 -116
-196 -193 -82 -77 -158 -153 -170 -168 -37 -49 -10 -51 84 -7 248 116 647 213
686 166 14 -16 -4 -26 -49 -26 -39 0 -140 -24 -236 -56 -187 -62 -297 -144
-319 -235 -6 -22 -2 -27 32 -38 21 -6 119 -16 218 -22 99 -5 247 -21 329 -34
158 -26 456 -92 469 -104 4 -4 -62 -13 -145 -20 -84 -6 -220 -21 -303 -33 -82
-11 -201 -23 -264 -27 -105 -6 -114 -8 -122 -28 -7 -20 -3 -23 49 -38 31 -9
117 -35 191 -58 l134 -42 14 -47 c17 -60 67 -111 129 -132 57 -19 320 -23 406
-5 107 22 186 59 249 116 67 63 85 106 70 172 -6 29 -6 41 2 41 6 0 165 -34
353 -75 189 -41 376 -78 416 -81 94 -8 211 10 264 41 78 46 244 257 244 311 0
30 0 30 -218 43 -96 6 -208 18 -249 27 -277 57 -514 165 -768 348 -369 267
-431 311 -531 372 -264 160 -472 237 -829 307 -94 18 -147 21 -362 21 l-253 1
0 52 c0 222 -98 574 -227 813 -142 265 -404 546 -630 679 -29 17 -53 29 -53
28z m-582 -934 c132 -159 242 -399 293 -640 28 -132 38 -392 17 -414 -8 -8
-60 -23 -114 -33 -216 -38 -360 -112 -537 -276 l-69 -64 4 185 c4 159 8 198
31 284 37 136 87 263 148 370 114 201 143 293 161 497 6 76 15 138 19 138 4 0
25 -21 47 -47z"/>
<path d="M8375 6619 c-82 -4 -255 -22 -384 -38 -129 -17 -242 -31 -250 -31 -9
-1 1 -10 22 -21 39 -20 257 -76 507 -129 398 -84 659 -160 730 -211 41 -30 78
-94 109 -191 7 -21 16 -40 20 -42 4 -3 7 42 6 99 0 89 3 106 20 125 76 85 216
64 373 -55 72 -54 152 -147 152 -177 0 -27 -15 -53 -73 -126 -100 -127 -259
-225 -632 -390 -368 -162 -1020 -414 -1545 -596 -184 -64 -339 -121 -344 -126
-7 -7 22 -10 84 -10 52 -1 219 -5 370 -10 1212 -39 2043 205 2420 711 63 84
91 145 122 257 18 66 21 104 21 267 -1 324 -43 519 -128 594 -59 52 -117 58
-730 81 -308 11 -596 22 -640 24 -44 2 -147 0 -230 -5z"/>
<path d="M6390 6085 c-106 -24 -212 -78 -355 -180 -290 -207 -619 -623 -716
-904 -11 -30 -19 -56 -19 -58 0 -13 83 4 180 36 63 21 116 38 116 37 1 0 -21
-35 -48 -76 -130 -195 -194 -379 -245 -700 -15 -94 -18 -167 -16 -405 2 -314
12 -497 28 -501 6 -2 33 31 62 74 28 42 93 138 145 213 51 75 98 145 104 155
9 15 26 -40 87 -296 106 -434 133 -627 144 -995 15 -530 -84 -942 -320 -1338
-43 -71 -77 -131 -77 -133 0 -10 33 1 280 87 143 51 262 90 263 88 2 -2 30
-105 62 -229 91 -355 292 -969 308 -943 18 29 56 645 57 913 0 225 26 735 45
889 49 402 176 790 356 1088 97 160 228 323 399 494 183 185 352 324 591 485
87 59 157 109 156 111 -6 5 -204 -47 -342 -90 -460 -146 -700 -248 -924 -394
-318 -206 -577 -507 -681 -791 -12 -34 -26 -64 -29 -67 -10 -5 -31 210 -41
405 -8 172 2 513 20 660 33 265 99 559 173 765 21 60 28 95 20 95 -5 0 -96
-49 -203 -110 -107 -60 -198 -110 -203 -110 -12 0 1 143 24 277 28 163 91 345
179 518 134 265 268 445 565 760 134 143 134 140 31 170 -58 18 -101 18 -176
0z"/>
</g>
</svg>
